<svg version="1.1" id="Layer_1" xmlns="http://www.w3.org/2000/svg" >

<path d="M35.4,21.3C35.3,21.3,35.5,21.3,35.4,21.3L35.4,21.3z M35.4,21.3C35.4,21.3,35.4,21.3,35.4,21.3
	C35.4,21.3,35.4,21.3,35.4,21.3C35.4,21.3,35.4,21.3,35.4,21.3C35.4,21.3,35.4,21.3,35.4,21.3z M70.4,28.8c0,0.1,0,0.2,0,0.3
	c-0.1,0.8-0.4,1.4-0.9,1.8c-0.1,0.1-0.2,0.1-0.3,0.2c0,0.8,0,1.6,0,2.4c0,0.4,0,0.7,0,1.1c0,0.4,0.1,0.8-0.2,1.2
	c-0.3,0.4-0.7,0.6-1.2,0.4c-0.4-0.1-0.7-0.4-0.9-0.7c-0.2-0.3-0.3-0.6-0.4-0.8c-0.2-0.3-0.3-0.6-0.4-1c-0.2-0.6-0.5-1.2-0.6-1.8
	c-0.2,0-0.4,0.1-0.5,0.1c-0.2,0-0.4,0.1-0.6,0.1l-0.3,0.1c-1.6,0.3-2.5,0.5-3.2,0.6c-1.9,0.4-3.3,0.6-3.6,0.7
	c-0.7,0.1-1.3,0.2-1.4,0.2c-2.8,0.5-5.7,0.9-8.5,1.4c-4.7,0.8-9.6,1.5-14.3,2.5c-0.1,0-0.2,0-0.3,0c-0.4,5.5-0.9,5.9-1.7,5.9
	c0,0,0,0-0.1,0c-0.7,0-1.3-0.5-2-5.8c0,0,0,0,0-0.1c-1.4-0.2-2.4-0.6-3.7-1.2l-3-1.3c-1,4.3-1.5,4.9-2.2,4.9c-0.1,0-0.1,0-0.2,0
	c-0.8-0.1-1.3-0.5-1.2-6c0-0.2,0.1-0.3,0.1-0.4c-0.1-0.1-0.2-0.1-0.2-0.2c-0.8-1-0.9-1.7-0.9-3.3c0-1.1-0.1-2.8-0.4-5.5l-0.2-1.1
	c-0.4-3-0.7-5.4,0.7-6.1c0.4-0.2,0.9-0.3,1.6-0.3l0,0c0-0.4,0.1-0.9,0.1-1.4c0-0.6,0-1.2,0-1.9c-0.1-0.9-0.2-1.8,0.1-2.7
	c0.3-1,0.9-1.9,1.8-2.4C22.9,8,24.3,8,25.6,8.1c1.1,0,2.2,0,3.3,0c1.1,0,2.3-0.1,3.4,0.1c0.9,0.1,1.9,0.3,2.7,0.8
	c1.1-1.2,3.2-1.1,4.7-1.2c1.1-0.1,2.2-0.1,3.3-0.2c0.9,0,1.9-0.2,2.8,0c0.6,0.1,1.1,0.4,1.5,0.7c1-1,2.6-1.1,3.9-1.1
	c1.1,0,2.2-0.1,3.3-0.2c1.7-0.1,4-0.1,4.9,1.7c0.3,0.6,0.4,1.3,0.4,2c0,0.4,0.1,0.8,0.1,1.1c0.1,0,0.2-0.1,0.2-0.1
	c0.8-0.1,1.7-0.1,2.5,0.2c0.8,0.3,1.3,0.9,1.6,1.7c0.5,1.3,0.3,2.8,0.8,4.1c0.4,0.2,0.9,0.2,1.3,0.2c0.6,0,1.1,0.1,1.6,0.4
	c0.8,0.5,1.2,1.4,1.4,2.4c0.2,1.2,0.3,2.5,0.4,3.7c0.1,1.4,0.3,2.7,0.4,4.1C70.5,28.6,70.5,28.7,70.4,28.8z M60.1,19.9
	c0,0-0.1,0.1-0.1,0.1c-1.8,0.4-3.6,0.3-5.4,0.4c-1.5,0.1-3,0.3-4.5,0.8c1.6,1,3,2.3,4.3,3.7c0.1,0.2,0.2,0.4,0.2,0.6
	c0.4,0.9,0.6,1.9,0.6,2.9c3.2-0.4,6.3-0.9,9.5-1.3c0,0,0-0.1,0-0.1c0-0.1,0-0.2,0-0.2c0,0,0,0,0,0c0,0,0,0,0-0.1
	c0-0.3,0.1-0.6,0.1-1c0-0.7,0-1.3-0.1-1.8c0,0,0,0,0,0C63.2,22.3,61.7,21,60.1,19.9z M36.9,30.8c0.8-0.1,1.6-0.2,2.4-0.3
	c0.1-0.9,0-1.7-0.3-2.5c-0.1-0.5-0.3-0.9-0.6-1.3c-0.1-0.2-0.2-0.4-0.3-0.5c0-0.1-0.1-0.1-0.1-0.2c0,0,0-0.1-0.1-0.1c0,0,0,0,0,0
	c-0.1-0.1-0.1-0.2-0.2-0.4c-0.6-0.9-1.2-1.8-1.9-2.7c-0.4,0.2-0.9,0.2-1.4,0.3c-2.3,0.2-4.6,0.5-6.8,0.9c0.7,0.5,1,1.4,1.2,2.2
	c0.5,1.9,0.7,3.9,0.8,5.9C32.1,31.5,34.5,31.2,36.9,30.8z M40.8,30.3c4.3-0.6,8.5-1.2,12.8-1.8c0-0.1,0-0.3,0-0.4c0-0.1,0-0.3,0-0.4
	c0-0.1,0-0.1,0-0.2c0,0,0,0,0,0c0,0,0,0,0,0c0-0.3-0.1-0.6-0.2-0.8c0-0.1-0.1-0.3-0.1-0.4c0-0.1,0-0.1-0.1-0.2c0,0,0-0.1,0-0.1
	c0,0,0,0,0,0c0,0,0-0.1,0-0.1c-1.5-1.7-3.3-3.1-5.3-4.2c0,0,0,0,0,0c-3.5,0.3-6.9,0.5-10.4,0.7c0.7,1,1.3,2,2,3
	c0.1,0.1,0.1,0.2,0.1,0.3C40.4,26.9,40.9,28.6,40.8,30.3z M48.2,9.6c0.1,0.4,0.3,0.8,0.3,1.2c0.4,3,0.6,6,0.6,9c1.6-0.5,3.3-0.9,5-1
	c1.8-0.1,3.7,0.1,5.4-0.3c-0.3-1.9-0.5-3.7-0.8-5.6c-0.1-0.6-0.2-1.2-0.2-1.9c-0.1-0.5-0.1-0.9-0.2-1.4c-0.5-1.6-3-1.2-4.3-1.1
	c-0.9,0.1-1.8,0.1-2.7,0.1C50.4,8.7,48.8,8.6,48.2,9.6z M36,10.1c0.4,0.8,0.5,1.8,0.5,2.7c0,2.2,0.2,4.3,0.6,6.4
	c0.1,0.6,0.2,1.1,0.1,1.6c3.4-0.2,6.8-0.5,10.2-0.7c0.1,0,0.1-0.1,0.2-0.1c0-1.4,0-2.7-0.1-4.1c-0.1-1-0.1-2.1-0.2-3.1
	c-0.1-0.8-0.1-1.6-0.4-2.4C46.7,9.5,46.1,9,45.2,9c-1.1-0.1-2.3,0.1-3.4,0.1c-1.1,0.1-2.3,0.1-3.4,0.2C37.6,9.3,36.5,9.4,36,10.1z
	 M21.2,16.4c0,0.2-0.1,0.5,0,0.7c0.2,0,0.3,0,0.4,0.1c0.4,0.1,0.9,0.2,1.3,0.5c0.8,0.4,1.3,1.1,1.4,2.1c0.1,0.8-0.2,1.9,0.2,2.6
	c0.3,0.6,1.2,0.3,1.8,0.2c1.3-0.2,2.6-0.4,3.9-0.6c1.5-0.2,3.1-0.3,4.6-0.5c0.1,0,0.4-0.1,0.1,0c0.1,0,0.1,0,0.2,0
	c0.1,0,0.2,0,0.3-0.1c0,0,0,0,0,0c0,0,0,0,0,0c0,0,0,0,0,0c0,0,0,0,0,0c0.1-0.1,0.1-0.1,0.2-0.2c0.1-0.1,0.1-0.2,0.2-0.4
	c0,0,0-0.1,0-0.1c0,0,0,0,0,0c0-0.1,0-0.2,0-0.3c0-0.3,0-0.3-0.1-0.6c-0.1-0.3-0.1-0.7-0.2-1c-0.2-1-0.3-2-0.4-2.9
	c-0.1-1.3,0-2.6-0.2-3.9c0-0.4-0.2-0.8-0.3-1.1c-0.1-0.1-0.2-0.2-0.3-0.4c-0.3-0.3-0.7-0.5-1.2-0.6c-0.9-0.2-1.7-0.3-2.6-0.3
	c-1.2,0-2.4,0-3.6,0c-1,0-2-0.1-3,0c-2,0.1-3,1.7-2.8,3.6C21.3,14.3,21.3,15.3,21.2,16.4z M21.1,34.6c-0.2-0.1-0.5-0.2-0.6-0.3
	c0,1.2,0,2,0.1,2.7C20.7,36.5,20.8,35.7,21.1,34.6z M31.4,37.8c-0.2,0-0.4,0-0.6,0c0,0-0.1,0-0.1,0c0.2,1.2,0.3,2,0.4,2.7
	C31.2,39.9,31.3,39,31.4,37.8z M65.9,30.3c0.5-0.1,1-0.1,1.4-0.2c0.8-0.1,1-0.1,1.3-0.3c0.2-0.2,0.4-0.5,0.4-0.9c0,0,0-0.1,0-0.1
	c0-0.1,0-0.1,0-0.2c-0.3-2.4-0.4-4.8-0.8-7.1c-0.1-0.7-0.3-1.6-1-1.9c-0.8-0.3-1.7-0.1-2.5-0.5c-0.2,0-0.5-0.1-0.6-0.4
	c-0.3-0.7-0.5-1.5-0.6-2.2c-0.1-0.6-0.1-1.3-0.3-1.9c-0.1-0.5-0.3-1-0.7-1.2c-0.6-0.2-1.4-0.2-2.1-0.1c0,0,0,0-0.1,0
	c0.2,1.8,0.5,3.7,0.8,5.5c1.7,1.2,3.3,2.6,4.7,4.1c0.1,0.1,0.2,0.3,0.2,0.5c0,0,0,0,0,0c0.3,1.5,0.2,3-0.1,4.4
	c0,0.2-0.2,0.4-0.4,0.5c-0.1,0.1-0.2,0.1-0.3,0.1c-2.6,0.4-5.3,0.8-7.9,1.1c-9.3,1.3-18.6,2.6-28,4c0,0,0,0,0,0
	c-0.4,0.3-1.2,0.1-1.2-0.6c0-2.1-0.3-4.1-0.7-6.1c-0.1-0.6-0.3-1.5-0.9-1.7c-0.4-0.2-0.9-0.1-1.3-0.2c-0.4,0-0.9-0.1-1.3-0.3
	c-0.3,0-0.5-0.2-0.6-0.4c-0.4-0.9-0.5-1.8-0.6-2.7c-0.1-0.6-0.1-1.2-0.3-1.7c-0.1-0.4-0.2-0.6-0.4-0.7c-0.5-0.1-1-0.1-1.5-0.4
	c-0.2,0-0.5,0-0.8,0c-0.4,0-0.9,0.1-1.1,0.2c-0.5,0.3-0.1,3.1,0.1,4.6l0.2,1.2c0.4,2.8,0.4,4.5,0.4,5.6c0,1.5,0.1,1.8,0.5,2.3
	c0.1,0.1,0.9,0.5,2.9,1.3l3.2,1.4c1.2,0.5,2.1,0.9,3.4,1.1c1.6,0.2,2.8,0,3.4-0.1c4.8-0.9,9.7-1.7,14.4-2.5c2.8-0.5,5.7-0.9,8.5-1.4
	c0.1,0,0.6-0.1,1.4-0.2c0.3-0.1,1.6-0.3,3.6-0.7c0.7-0.1,1.6-0.3,3.2-0.6l0.3-0.1c0.2,0,0.4-0.1,0.6-0.1
	C65.1,30.4,65.5,30.4,65.9,30.3z M67.8,31.6c-0.1,0-0.2,0-0.3,0c-0.1,0-0.2,0-0.4,0c0.1,0.2,0.1,0.5,0.2,0.7
	c0.1,0.2,0.1,0.3,0.2,0.5c0,0.1,0.1,0.1,0.1,0.2c0,0,0.1,0.1,0.1,0.1c0,0.1,0.1,0.2,0.1,0.3c0-0.1,0-0.1,0-0.2
	C67.8,32.8,67.8,32.2,67.8,31.6z M81.4,59.7c-0.1,0.3-0.3,0.5-0.5,0.5L77.7,61c0.1,0.1,0.2,0.3,0.2,0.4v11.6c0,0.4-0.3,0.8-0.8,0.8
	c-0.1,0-0.1,0-0.2,0c-0.1,0.1-0.2,0.1-0.2,0.1L35.5,84.6c-0.1,0.1-0.3,0.2-0.5,0.2c0,0,0,0,0,0c0,0-0.1,0-0.1,0l0,0
	c-0.1,0-0.1,0-0.2,0c0,0,0,0-0.1,0c-0.1,0.2-0.4,0.4-0.6,0.4c-0.1,0-0.2,0-0.3-0.1l-19.3-9.8c0,0-0.1,0-0.1,0
	c-0.3,0-0.5-0.2-0.7-0.4l0,0c-0.4-0.2-0.5-0.6-0.3-1c0.1-0.1,0.2-0.2,0.3-0.3V63c0-0.1,0-0.2,0.1-0.3l-4.1-2C9.2,60.6,9,60.4,9,60.1
	c0-0.3,0.1-0.5,0.3-0.7l6.9-5.3c0-0.3,0.3-0.6,0.6-0.6l29.6-5.5c-0.2-3.4-0.4-6.7-0.6-10.1c-0.1-1,1.5-1,1.6,0
	c0.2,3.3,0.4,6.5,0.6,9.8l9.3-1.7c0.4-0.1,0.7,0.1,0.8,0.5l15.7,6.5c0.2,0.1,0.3,0.2,0.4,0.3l0.1,0c0.2-0.1,0.5,0,0.7,0.2l6.1,5.5
	C81.3,59.2,81.4,59.5,81.4,59.7z M45.4,53.7c0.2-0.1,0.4-0.1,0.6-0.1c0.2,0.1,0.4,0.2,0.5,0.4c0.1,0.1,0.2,0.2,0.3,0.4
	c-0.1-1.6-0.2-3.2-0.3-4.8l-27.7,5.1l16.4,7.8c0,0,0,0,0,0L72,53.9l-14.6-6.1c-0.1-0.1-0.2-0.1-0.3-0.3l-9,1.7
	c0.1,1.4,0.2,2.9,0.3,4.3c0-0.1,0.1-0.1,0.1-0.2c0.2-0.4,0.7-0.5,1.1-0.3c0.4,0.2,0.5,0.7,0.3,1.1c-0.5,1-1,2.1-1.4,3.1
	c-0.1,0.2-0.4,0.4-0.7,0.4c-0.3,0-0.5-0.2-0.7-0.4c-0.6-0.8-1.2-1.7-1.8-2.5C44.9,54.5,45.1,54,45.4,53.7z M11.1,59.9l17.6,8.5
	l4.9-5l-16.7-8L11.1,59.9z M34.1,83.6c0.1-0.1,0.1-0.1,0.2-0.2l0.2-18.8l-5,5.1C29.3,70,29.1,70,28.9,70c-0.1,0-0.2,0-0.3-0.1
	l-13.7-6.6v10.5L34.1,83.6z M76.4,61.4l-35,8.6c-0.1,0-0.1,0-0.2,0c-0.2,0-0.4-0.1-0.5-0.2L36,65l-0.2,18l40.6-10.6c0,0,0,0,0,0v-11
	C76.4,61.4,76.4,61.4,76.4,61.4z M79.1,59.2l-4.8-4.2l-37.5,8.8l4.7,4.7L79.1,59.2z"/>
</svg>