

<svg version="1.1" xmlns="http://www.w3.org/2000/svg" >
<g id="Layer_1">
</g>
<g id="Layer_2">
</g>
<g id="Layer_3">
</g>
<g id="Layer_4">
</g>
<g id="Layer_6">
</g>
<g id="Layer_7">
</g>
<g id="Layer_5">
</g>
<g id="Layer_16">
</g>
<g id="Layer_12">
</g>
<g id="Layer_8">
</g>
<g id="Layer_9">
</g>
<g id="Layer_10">
</g>
<g id="Layer_13">
</g>
<g id="Layer_11">
</g>
<g id="Layer_15">
</g>
<g id="Layer_17">
</g>
<g id="Layer_14">
</g>
<g id="Layer_19" display="none">
</g>
<g id="Layer_18">
</g>
<g id="Layer_20">
</g>
<g id="Layer_21">
</g>
<g id="Layer_22">
</g>
<g id="Layer_23">
</g>
<g id="Layer_24">
</g>
<g id="Layer_25">
</g>
<g id="Layer_26">
</g>
<g id="Layer_27">
</g>
<g id="Layer_28">
</g>
<g id="Layer_30">
</g>
<g id="Layer_29">
</g>
<g id="Layer_31">
	<path d="M8.5,60.3c-0.1,0.2-0.2,0.5,0,0.8s0.4,0.4,0.7,0.4h13.9v13.2c0,0.2,0.1,0.4,0.3,0.6c0.4,0.3,1.8,1.2,3.9,1.2
		c0.1,0,0.2,0,0.3,0c2-0.1,3.3-1,3.8-1.4c0.2-0.1,0.2-0.3,0.2-0.5v-13h13.2l0,7.1c0,0.2,0.1,0.4,0.3,0.6c0.7,0.5,2,1.2,3.9,1.2
		c0.1,0,0.2,0,0.3,0c2-0.1,3.3-1,3.8-1.4c0.2-0.1,0.2-0.3,0.2-0.5l0-12.7c1.9,0,3.8,0,5.7,0l-1.5,2.4c-0.1,0.2-0.2,0.5,0,0.8
		c0.1,0.2,0.4,0.4,0.7,0.4h4.7l-9.6,16c-0.1,0.2-0.2,0.5,0,0.8c0.1,0.2,0.4,0.4,0.7,0.4h14.6v13.2c0,0.2,0.1,0.4,0.3,0.6
		c0.4,0.3,1.8,1.2,3.9,1.2c0.1,0,0.2,0,0.3,0c2-0.1,3.4-1,3.8-1.4c0.2-0.1,0.2-0.3,0.2-0.5v-13h14c0.3,0,0.5-0.1,0.7-0.4
		c0.1-0.2,0.1-0.5,0-0.8l-9.3-14.7c0-0.1-0.5-0.7-0.9-1.3c1.7,0,3.4,0,5.1,0.1c0,0,0,0,0,0c0.3,0,0.5-0.1,0.7-0.4
		c0.1-0.2,0.1-0.5,0-0.8l-9-14.2l2.9,0c0.3,0,0.5-0.2,0.7-0.4c0.1-0.2,0.1-0.5,0-0.8L73.3,30c-0.3-0.4-1-0.4-1.2,0l-8.7,12.7
		c-0.2,0.2-0.2,0.5,0,0.8c0.1,0.2,0.4,0.4,0.7,0.4l2.7,0l-3.1,4.9c-2.7-4.5-4.9-8.2-5.5-9.1l-0.3-0.5c-0.2-0.2-0.3-0.5-0.5-0.8
		c1.7,0,3.4,0,5.1,0.1c0,0,0,0,0,0c0.3,0,0.5-0.1,0.7-0.4c0.1-0.2,0.1-0.5,0-0.8l-9-14.2l2.9,0c0.3,0,0.5-0.2,0.7-0.4
		c0.1-0.2,0.1-0.5,0-0.8L48.8,9.2c-0.3-0.4-1-0.4-1.2,0L38.8,22c-0.2,0.2-0.2,0.5,0,0.8c0.1,0.2,0.4,0.4,0.7,0.4l2.7,0L36,32.8
		l-2.4-3.9l2.9,0c0.3,0,0.5-0.2,0.7-0.4c0.1-0.2,0.1-0.5,0-0.8L28.4,15c-0.3-0.4-1-0.4-1.2,0l-8.7,12.7c-0.2,0.2-0.2,0.5,0,0.8
		c0.1,0.2,0.4,0.4,0.7,0.4l2.7,0l-9,14.2c-0.1,0.2-0.2,0.5,0,0.8c0.1,0.2,0.4,0.4,0.7,0.4h4.7L8.5,60.3z M25.3,73
		c-0.1,0.5-0.3,1-0.2,1.6c-0.3-0.1-0.5-0.2-0.7-0.3V61.5h1.1c0,0.9,0.4,1.6,0.7,2.5c0.2,0.6,0.4,1.2,0.3,1.8c-0.2,0.7-0.6,1.2-1,1.8
		c-0.6,1.1-0.5,2.3-0.4,3.5C25.3,71.7,25.4,72.4,25.3,73z M28.1,75c-0.2,0-0.4,0.1-0.6,0.1c-0.2,0-0.4,0-0.6,0c0.1-0.8,0-1.7,0-2.5
		c0-0.4,0-0.8,0.1-1.3c0.1-0.3,0.2-0.9,0.5-1.1c0.5-0.3,0.6,0.4,0.6,0.7c0,0.5,0,1,0,1.4C28.2,73.2,28.2,74.1,28.1,75z M30.3,74.1
		c-0.3,0.2-0.9,0.6-1.7,0.7c0.1-0.8,0.1-1.6,0.1-2.4c0-0.4,0-0.9,0-1.3c0-0.4,0-0.7-0.2-1.1c-0.3-0.6-1.1-0.5-1.5,0
		c-0.4,0.6-0.5,1.4-0.5,2.1c0,0.9,0.1,1.8,0,2.7c-0.3,0-0.6-0.1-0.9-0.2c0,0,0.1-0.1,0-0.2c-0.2-0.6,0.2-1.2,0.2-1.8
		c0-0.6-0.1-1.3-0.2-1.9c-0.1-0.6-0.1-1.2-0.1-1.9c0.1-0.8,0.4-1.4,0.8-2c0.5-0.8,0.8-1.6,0.5-2.6c-0.3-1-0.9-1.9-0.9-2.9h1.9
		c0.1,0.7,0.6,1.4,0.7,2.1c0.2,1.1-0.4,2.1-0.2,3.2c0,0.4,0.2,0.7,0.4,1c0.3,0.3,0.6,0.5,0.9,0.8c0.3,0.2,0.4,0.6,0.5,1V74.1z
		 M30.3,68.5c-0.1-0.1-0.1-0.1-0.2-0.2c-0.3-0.3-0.7-0.4-0.9-0.7c-0.3-0.4-0.3-0.8-0.3-1.3c0-0.9,0.4-1.8,0.2-2.8
		c-0.1-0.7-0.6-1.3-0.7-2h1.9V68.5z M10.5,60c1.1-1.7,2.9-4.6,2.9-4.7c0-0.1,1.1-1.7,1.1-1.8c0-0.1,1-1.6,1-1.7l5-7.9
		c0.2-0.3,0.1-0.8-0.2-1c-0.1-0.1-0.3-0.1-0.4-0.1c-0.1,0-0.2-0.1-0.3-0.1h-4.9l8.9-14.1c0.2-0.4,0.1-0.8-0.2-1
		c-0.1,0-0.1-0.1-0.2-0.1c-0.1-0.1-0.2-0.1-0.4-0.1l-2.4,0l7.3-10.7l7.3,10.7l-2.8,0c-0.4,0-0.7,0.3-0.7,0.8c0,0.1,0,0.2,0.1,0.3
		c0,0.1,0,0.2,0.1,0.3l8.8,13.9c-1.6,0-3.2,0-4.9-0.1c0,0,0,0,0,0c-0.1,0-0.2,0-0.3,0.1c-0.1,0-0.2,0-0.2,0.1
		c-0.4,0.2-0.5,0.7-0.2,1L45,60H10.5z M44.8,56.9L44,55.7c0.3,0,0.5,0,0.8,0L44.8,56.9z M47.6,68.8c-0.6-0.2-1.1-0.4-1.4-0.6l0-3.4
		c0.4,0,0.4,0.7,0.4,1c0,0.2,0.1,0.4,0.2,0.5c0.1,0.2,0.3,0.2,0.5,0.4c0.3,0.3,0.4,0.7,0.4,1.1C47.7,68.1,47.6,68.5,47.6,68.8z
		 M49.2,69c-0.4,0-0.8,0-1.1-0.1c0-0.9,0.3-2-0.5-2.6c-0.2-0.2-0.4-0.2-0.4-0.5c0-0.2,0-0.5-0.1-0.7c-0.1-0.4-0.4-0.6-0.8-0.7l0-1.3
		c0,0,0.1,0,0.1,0c0.5-0.2,1.3-1.1,1.8-0.3c0.4,0.6,0,1.5,0.1,2.2c0.1,0.7,0.6,1.2,0.9,1.8C49.4,67.4,49.3,68.2,49.2,69z M50.8,68.7
		c-0.3,0.1-0.7,0.2-1.1,0.3c0.1-0.8,0.1-1.6-0.1-2.4c-0.1-0.4-0.4-0.7-0.6-1.1c-0.3-0.5-0.3-0.9-0.3-1.5c0.1-0.7,0.1-1.6-0.6-2
		c-0.7-0.4-1.3,0.2-1.9,0.5v-1.1h0.1c0.3,0,0.5-0.1,0.7-0.4c0.1-0.2,0.1-0.5,0-0.8l-0.8-1.2c0,0,0,0,0,0l0-3.4c0.2,0,0.3,0,0.5,0
		c0,0.7,0.1,1.5,0.2,2.2c0.1,0.5,0.2,1,0.4,1.5c0.1,0.3,0.2,0.9,0.6,1c0.4,0.1,0.6-0.2,0.7-0.5c0.1-0.5,0.2-1,0.2-1.5
		c0.1-0.9,0.3-1.8,0.4-2.7c0.3,0,0.7,0,1,0c0,0.9,0.6,1.8,0.2,2.6c-0.2,0.5-0.7,0.9-0.9,1.4c-0.2,0.4-0.2,1-0.1,1.4
		c0.3,1.2,1.4,2,1.4,3.3C50.9,65.8,50.8,67.3,50.8,68.7z M47.2,55.7c0.3,0,0.6,0,0.9,0c0.2,0,0.4,0,0.6,0c-0.1,0.7-0.2,1.3-0.3,2
		c-0.1,0.4-0.1,0.9-0.2,1.3c0,0.2-0.1,0.4-0.1,0.6c0,0.1-0.1,0.5-0.2,0.3c-0.2-0.3-0.3-0.8-0.4-1.2c-0.1-0.4-0.2-0.8-0.3-1.2
		C47.2,56.9,47.2,56.3,47.2,55.7z M52,68.1c-0.2,0.1-0.4,0.3-0.7,0.4c0-1.2,0-2.5,0-3.7c0-0.5,0-1.1-0.2-1.6
		c-0.2-0.5-0.6-0.9-0.8-1.3c-0.3-0.6-0.5-1.2-0.3-1.8c0.2-0.6,0.7-1,0.9-1.5c0.4-0.9-0.3-1.9-0.2-2.8c0.5,0,0.9,0,1.4,0L52,68.1z
		 M48.1,54.2c-1.7,0-3.3,0-5,0l-6.3-10c1.7,0,3.4,0,5.1,0.1c0,0,0,0,0,0c0.3,0,0.5-0.1,0.7-0.4c0.1-0.2,0.1-0.5,0-0.8l-5.7-9
		l7.1-11.3c0.2-0.4,0.1-0.8-0.2-1c-0.1,0-0.1-0.1-0.2-0.1c-0.1-0.1-0.2-0.1-0.4-0.1l-2.4,0L48.2,11l7.3,10.7l-2.8,0
		c-0.4,0-0.7,0.3-0.7,0.8c0,0.1,0,0.2,0.1,0.3c0,0.1,0,0.2,0.1,0.3L60.9,37c-1.6,0-3.2,0-4.9-0.1c0,0,0,0,0,0c-0.1,0-0.2,0-0.3,0.1
		c-0.1,0-0.2,0.1-0.3,0.1c-0.3,0.2-0.5,0.7-0.2,1c0.5,0.8,0.9,1.4,1.2,1.9l0.3,0.5c0.6,0.9,3,4.9,5.8,9.7l-2.5,4
		C56.1,54.2,52.1,54.2,48.1,54.2z M70.9,88.1c-0.1,0.5-0.3,1-0.2,1.6c-0.3-0.1-0.5-0.2-0.7-0.3V76.5h1.1c0,0.9,0.4,1.6,0.7,2.5
		c0.2,0.6,0.4,1.2,0.3,1.8c-0.2,0.7-0.6,1.2-1,1.8c-0.6,1.1-0.5,2.3-0.4,3.5C70.8,86.7,71,87.4,70.9,88.1z M73.6,90
		c-0.2,0-0.4,0.1-0.6,0.1c-0.2,0-0.4,0-0.6,0c0.1-0.8,0-1.7,0-2.5c0-0.4,0-0.8,0.1-1.3c0.1-0.3,0.2-0.9,0.5-1.1
		c0.5-0.3,0.6,0.4,0.6,0.7c0,0.5,0,1,0,1.4C73.8,88.2,73.7,89.1,73.6,90z M75.8,89.1c-0.3,0.2-0.9,0.6-1.7,0.7
		c0.1-0.8,0.1-1.6,0.1-2.4c0-0.4,0-0.9,0-1.3c0-0.4,0-0.7-0.2-1.1c-0.3-0.6-1.1-0.5-1.5,0c-0.4,0.6-0.5,1.4-0.5,2.1
		c0,0.9,0.1,1.8,0,2.7c-0.3,0-0.6-0.1-0.9-0.2c0,0,0.1-0.1,0-0.2c-0.2-0.6,0.2-1.2,0.2-1.8c0-0.6-0.1-1.3-0.2-1.9
		c-0.1-0.6-0.1-1.2-0.1-1.9c0.1-0.8,0.4-1.4,0.8-2c0.5-0.8,0.8-1.6,0.5-2.6c-0.3-1-0.9-1.9-0.9-2.9h1.9c0.1,0.7,0.6,1.4,0.7,2.1
		c0.2,1.1-0.4,2.1-0.2,3.2c0,0.4,0.2,0.7,0.4,1c0.3,0.3,0.6,0.5,0.9,0.8c0.3,0.2,0.4,0.6,0.5,1V89.1z M75.8,83.5
		c-0.1-0.1-0.1-0.1-0.2-0.2c-0.3-0.3-0.7-0.4-0.9-0.7c-0.3-0.4-0.3-0.8-0.3-1.3c0-0.9,0.4-1.8,0.2-2.8c-0.1-0.7-0.6-1.3-0.7-2h1.9
		V83.5z M55.3,75c1.1-1.7,2.9-4.6,2.9-4.7l1.1-1.8c0-0.1,1-1.6,1-1.7c0.2-0.3,3-4.8,3.5-5.5l1.5-2.4c0.2-0.4,0.1-0.8-0.2-1
		c-0.1-0.1-0.3-0.1-0.4-0.1c-0.1,0-0.2-0.1-0.3-0.1h-4.9l8.9-14.1c0.2-0.4,0.1-0.8-0.2-1c-0.1,0-0.1-0.1-0.2-0.1
		c-0.1-0.1-0.2-0.1-0.4-0.1l-2.4,0l7.3-10.7l7.3,10.7l-2.8,0c-0.4,0-0.7,0.3-0.7,0.8c0,0.1,0,0.2,0.1,0.3c0,0.1,0,0.2,0.1,0.3
		l8.8,13.9c-1.6,0-3.2,0-4.9-0.1c0,0,0,0,0,0c-0.1,0-0.2,0-0.3,0.1c-0.1,0-0.2,0-0.3,0.1c-0.3,0.2-0.5,0.7-0.2,1
		c0.1,0.1,1.5,2.3,1.5,2.4L89.8,75H55.3z"/>
</g>
</svg>
