<svg width="269" height="35" viewBox="0 0 269 35" fill="none" xmlns="http://www.w3.org/2000/svg">
<path d="M20.104 12.544C20.104 11.328 19.904 10.12 19.504 8.92C19.12 7.72 18.44 6.728 17.464 5.944C16.488 5.144 15.136 4.744 13.408 4.744C10.88 4.744 8.968 5.856 7.672 8.08C6.392 10.288 5.752 13.52 5.752 17.776C5.752 21.744 6.456 24.8 7.864 26.944C9.272 29.088 11.216 30.16 13.696 30.16C15.184 30.16 16.64 29.848 18.064 29.224C19.488 28.584 20.888 27.68 22.264 26.512C22.824 26.88 23.352 27.376 23.848 28C24.344 28.624 24.664 29.232 24.808 29.824C23.496 31.152 21.784 32.288 19.672 33.232C17.576 34.16 15.304 34.624 12.856 34.624C10.552 34.624 8.6 34.152 7 33.208C5.416 32.264 4.136 30.992 3.16 29.392C2.184 27.776 1.472 25.968 1.024 23.968C0.592 21.952 0.376 19.88 0.376 17.752C0.376 13.768 0.976 10.512 2.176 7.984C3.392 5.456 4.992 3.592 6.976 2.392C8.976 1.176 11.152 0.568 13.504 0.568C15.888 0.568 17.944 1.016 19.672 1.912C21.4 2.792 22.736 3.952 23.68 5.392C24.624 6.816 25.096 8.336 25.096 9.952C25.096 10.832 24.872 11.536 24.424 12.064C23.976 12.592 23.232 12.856 22.192 12.856C21.808 12.856 21.456 12.832 21.136 12.784C20.832 12.736 20.488 12.656 20.104 12.544ZM28.6544 20.92C28.6544 18.232 29.1184 15.856 30.0464 13.792C30.9904 11.712 32.3664 10.096 34.1744 8.944C35.9824 7.776 38.2144 7.192 40.8704 7.192C43.5584 7.192 45.8064 7.776 47.6144 8.944C49.4384 10.096 50.8064 11.704 51.7184 13.768C52.6464 15.832 53.1104 18.216 53.1104 20.92C53.1104 23.624 52.6384 26.008 51.6944 28.072C50.7664 30.136 49.3904 31.744 47.5664 32.896C45.7584 34.048 43.5264 34.624 40.8704 34.624C38.1984 34.624 35.9584 34.04 34.1504 32.872C32.3424 31.704 30.9744 30.088 30.0464 28.024C29.1184 25.96 28.6544 23.592 28.6544 20.92ZM33.8864 20.92C33.8864 22.008 33.9824 23.128 34.1744 24.28C34.3664 25.432 34.7104 26.496 35.2064 27.472C35.7184 28.448 36.4304 29.24 37.3424 29.848C38.2544 30.456 39.4384 30.76 40.8944 30.76C42.3344 30.76 43.5104 30.456 44.4224 29.848C45.3344 29.24 46.0384 28.448 46.5344 27.472C47.0464 26.496 47.3904 25.432 47.5664 24.28C47.7584 23.128 47.8544 22.008 47.8544 20.92C47.8544 19.832 47.7584 18.712 47.5664 17.56C47.3904 16.408 47.0464 15.344 46.5344 14.368C46.0384 13.376 45.3344 12.576 44.4224 11.968C43.5104 11.36 42.3344 11.056 40.8944 11.056C39.4384 11.056 38.2544 11.36 37.3424 11.968C36.4304 12.576 35.7184 13.376 35.2064 14.368C34.7104 15.344 34.3664 16.408 34.1744 17.56C33.9824 18.712 33.8864 19.832 33.8864 20.92ZM60.6891 7.816C61.1851 7.704 61.7451 7.632 62.3691 7.6C63.0091 7.552 63.5611 7.528 64.0251 7.528C64.4731 7.528 65.0091 7.552 65.6331 7.6C66.2731 7.632 66.8011 7.704 67.2171 7.816L70.9611 19.96C71.0891 20.36 71.2491 20.92 71.4411 21.64C71.6491 22.344 71.8491 23.064 72.0411 23.8C72.2331 24.52 72.3691 25.112 72.4491 25.576H72.6891C72.7531 25.112 72.8731 24.52 73.0491 23.8C73.2411 23.064 73.4411 22.344 73.6491 21.64C73.8571 20.92 74.0251 20.36 74.1531 19.96L77.8251 7.816C78.2731 7.72 78.8091 7.648 79.4331 7.6C80.0731 7.552 80.6171 7.528 81.0651 7.528C81.5131 7.528 82.0731 7.552 82.7451 7.6C83.4171 7.648 83.9611 7.72 84.3771 7.816L86.8971 33.928C86.1451 34.12 85.2731 34.216 84.2811 34.216C83.4811 34.216 82.7211 34.152 82.0011 34.024L80.9451 21.184C80.8811 20.416 80.8251 19.536 80.7771 18.544C80.7451 17.536 80.7211 16.536 80.7051 15.544C80.6891 14.552 80.6811 13.696 80.6811 12.976H80.4171L75.0651 30.064C74.6971 30.128 74.2731 30.184 73.7931 30.232C73.3131 30.264 72.8811 30.28 72.4971 30.28C72.1131 30.28 71.6811 30.264 71.2011 30.232C70.7371 30.184 70.3371 30.128 70.0011 30.064L64.6731 12.976H64.3851C64.3851 13.696 64.3771 14.552 64.3611 15.544C64.3451 16.536 64.3131 17.536 64.2651 18.544C64.2331 19.536 64.1851 20.424 64.1211 21.208L63.0891 34.024C62.3691 34.152 61.5931 34.216 60.7611 34.216C59.7531 34.216 58.8891 34.12 58.1691 33.928L60.6891 7.816ZM99.2991 34C98.8831 34.08 98.4511 34.128 98.0031 34.144C97.5551 34.176 97.1391 34.192 96.7551 34.192C96.3551 34.192 95.9311 34.176 95.4831 34.144C95.0351 34.128 94.6191 34.08 94.2351 34V8.032L94.4991 7.816H111.539C111.619 8.104 111.683 8.432 111.731 8.8C111.779 9.168 111.803 9.48 111.803 9.736C111.803 10.456 111.611 11.024 111.227 11.44C110.843 11.84 110.147 12.04 109.139 12.04H103.163C102.443 12.04 101.755 12.04 101.099 12.04C100.459 12.024 99.8431 12.008 99.2511 11.992C99.2671 12.632 99.2751 13.272 99.2751 13.912C99.2911 14.552 99.2991 15.184 99.2991 15.808V19.024C99.5871 19.024 99.8671 19.024 100.139 19.024C100.427 19.008 100.691 19 100.931 19H109.187C109.267 19.32 109.323 19.664 109.355 20.032C109.387 20.4 109.403 20.72 109.403 20.992C109.403 21.28 109.387 21.616 109.355 22C109.323 22.384 109.267 22.736 109.187 23.056H100.931C100.691 23.056 100.427 23.056 100.139 23.056C99.8671 23.04 99.5871 23.032 99.2991 23.032V34ZM129.96 7.84C130.344 7.728 130.736 7.656 131.136 7.624C131.536 7.592 131.904 7.576 132.24 7.576C133.168 7.576 133.952 7.688 134.592 7.912L134.808 8.2L126.552 26.224V34C126.168 34.08 125.76 34.128 125.328 34.144C124.896 34.176 124.48 34.192 124.08 34.192C123.744 34.192 123.336 34.176 122.856 34.144C122.376 34.128 121.952 34.08 121.584 34V26.032L113.352 8.224C114.456 7.696 115.512 7.432 116.52 7.432C117.8 7.432 118.72 8.112 119.28 9.472L122.4 16.504C122.768 17.416 123.104 18.296 123.408 19.144C123.728 19.992 123.984 20.8 124.176 21.568H124.416C124.688 20.72 124.968 19.856 125.256 18.976C125.56 18.08 125.92 17.136 126.336 16.144L129.96 7.84Z" fill="#EDE3DC"/>
<path d="M147.448 31.048C147.512 30.296 147.752 29.56 148.168 28.84C148.6 28.104 149.072 27.528 149.584 27.112C150.976 28.024 152.52 28.792 154.216 29.416C155.912 30.04 157.584 30.352 159.232 30.352C161.168 30.352 162.672 29.936 163.744 29.104C164.816 28.256 165.352 27.168 165.352 25.84C165.352 24.72 164.976 23.728 164.224 22.864C163.472 21.984 162.392 21.248 160.984 20.656L155.2 18.232C153.168 17.384 151.552 16.296 150.352 14.968C149.168 13.624 148.576 11.928 148.576 9.88C148.576 8.136 149.032 6.568 149.944 5.176C150.872 3.768 152.152 2.656 153.784 1.84C155.416 1.008 157.304 0.591998 159.448 0.591998C161.448 0.591998 163.328 0.847999 165.088 1.36C166.848 1.872 168.352 2.44 169.6 3.064C169.584 3.8 169.4 4.536 169.048 5.272C168.712 5.992 168.28 6.592 167.752 7.072C166.488 6.448 165.112 5.92 163.624 5.488C162.136 5.04 160.776 4.816 159.544 4.816C157.752 4.816 156.344 5.248 155.32 6.112C154.312 6.976 153.808 8.04 153.808 9.304C153.808 10.36 154.176 11.224 154.912 11.896C155.648 12.568 156.608 13.152 157.792 13.648L163.528 16.024C165.576 16.872 167.28 18.04 168.64 19.528C170.016 21.016 170.704 22.84 170.704 25C170.704 26.84 170.272 28.488 169.408 29.944C168.56 31.384 167.264 32.528 165.52 33.376C163.776 34.208 161.584 34.624 158.944 34.624C156.944 34.624 154.928 34.304 152.896 33.664C150.864 33.024 149.048 32.152 147.448 31.048ZM193.614 29.776C193.582 31.376 193.318 32.488 192.822 33.112C192.326 33.736 191.47 34.048 190.254 34.048H179.334C178.47 34.048 177.766 33.784 177.222 33.256C176.694 32.728 176.43 31.984 176.43 31.024V7.888L176.67 7.624H178.662C179.686 7.624 180.406 7.872 180.822 8.368C181.254 8.864 181.47 9.672 181.47 10.792V29.968C182.894 29.84 184.238 29.776 185.502 29.776H193.614ZM195.904 20.92C195.904 18.232 196.368 15.856 197.296 13.792C198.24 11.712 199.616 10.096 201.424 8.944C203.232 7.776 205.464 7.192 208.12 7.192C210.808 7.192 213.056 7.776 214.864 8.944C216.688 10.096 218.056 11.704 218.968 13.768C219.896 15.832 220.36 18.216 220.36 20.92C220.36 23.624 219.888 26.008 218.944 28.072C218.016 30.136 216.64 31.744 214.816 32.896C213.008 34.048 210.776 34.624 208.12 34.624C205.448 34.624 203.208 34.04 201.4 32.872C199.592 31.704 198.224 30.088 197.296 28.024C196.368 25.96 195.904 23.592 195.904 20.92ZM201.136 20.92C201.136 22.008 201.232 23.128 201.424 24.28C201.616 25.432 201.96 26.496 202.456 27.472C202.968 28.448 203.68 29.24 204.592 29.848C205.504 30.456 206.688 30.76 208.144 30.76C209.584 30.76 210.76 30.456 211.672 29.848C212.584 29.24 213.288 28.448 213.784 27.472C214.296 26.496 214.64 25.432 214.816 24.28C215.008 23.128 215.104 22.008 215.104 20.92C215.104 19.832 215.008 18.712 214.816 17.56C214.64 16.408 214.296 15.344 213.784 14.368C213.288 13.376 212.584 12.576 211.672 11.968C210.76 11.36 209.584 11.056 208.144 11.056C206.688 11.056 205.504 11.36 204.592 11.968C203.68 12.576 202.968 13.376 202.456 14.368C201.96 15.344 201.616 16.408 201.424 17.56C201.232 18.712 201.136 19.832 201.136 20.92ZM229.636 14.8C229.636 14.272 229.644 13.8 229.66 13.384C229.676 12.952 229.684 12.464 229.684 11.92C229.38 11.92 228.956 11.928 228.412 11.944C227.868 11.96 227.444 11.968 227.14 11.968H222.1C222.02 11.6 221.964 11.24 221.932 10.888C221.916 10.536 221.908 10.216 221.908 9.928C221.908 9.64 221.916 9.304 221.932 8.92C221.964 8.536 222.02 8.168 222.1 7.816H242.044C242.14 8.104 242.212 8.432 242.26 8.8C242.308 9.168 242.332 9.48 242.332 9.736C242.332 10.456 242.14 11.008 241.756 11.392C241.372 11.776 240.676 11.968 239.668 11.968H237.124C236.836 11.968 236.42 11.96 235.876 11.944C235.332 11.928 234.916 11.92 234.628 11.92C234.628 12.464 234.636 12.952 234.652 13.384C234.668 13.8 234.676 14.272 234.676 14.8V34C234.356 34.064 233.956 34.112 233.476 34.144C232.996 34.176 232.564 34.192 232.18 34.192C231.796 34.192 231.364 34.176 230.884 34.144C230.404 34.112 229.988 34.064 229.636 34V14.8ZM251.643 34C251.243 34.08 250.819 34.128 250.371 34.144C249.923 34.176 249.507 34.192 249.123 34.192C248.771 34.192 248.347 34.176 247.851 34.144C247.371 34.128 246.947 34.08 246.579 34V7.816C246.947 7.736 247.371 7.68 247.851 7.648C248.347 7.616 248.771 7.6 249.123 7.6C249.507 7.6 249.923 7.616 250.371 7.648C250.819 7.68 251.243 7.736 251.643 7.816V15.496C251.643 16.04 251.635 16.528 251.619 16.96C251.603 17.376 251.595 17.832 251.595 18.328C251.819 18.328 252.219 18.32 252.795 18.304C253.371 18.288 253.771 18.28 253.995 18.28H260.643C260.867 18.28 261.259 18.288 261.819 18.304C262.395 18.32 262.803 18.328 263.043 18.328C263.043 17.832 263.035 17.376 263.019 16.96C263.003 16.528 262.995 16.04 262.995 15.496V7.816C263.379 7.736 263.787 7.68 264.219 7.648C264.667 7.616 265.083 7.6 265.467 7.6C265.835 7.6 266.259 7.616 266.739 7.648C267.219 7.68 267.651 7.736 268.035 7.816V34C267.635 34.08 267.211 34.128 266.763 34.144C266.315 34.176 265.891 34.192 265.491 34.192C265.107 34.192 264.691 34.176 264.243 34.144C263.795 34.128 263.379 34.08 262.995 34V25.288C262.995 24.744 263.003 24.264 263.019 23.848C263.035 23.416 263.043 22.944 263.043 22.432C262.803 22.432 262.395 22.44 261.819 22.456C261.259 22.472 260.867 22.48 260.643 22.48H253.995C253.771 22.48 253.371 22.472 252.795 22.456C252.219 22.44 251.819 22.432 251.595 22.432C251.595 22.944 251.603 23.416 251.619 23.848C251.635 24.264 251.643 24.744 251.643 25.288V34Z" fill="black"/>
</svg>
